# xmcd
#
# Track frame offsets:
#	150
#	13641
#	29482
#	44478
#	62766
#	83290
#	95383
#	114148
#	132624
#	148540
#	171075
#	181651
#
# Disc length: 2545 seconds
#
# Revision: 2
# Processed by: cddbd v1.5.2PL0 Copyright (c) Steve Scherf et al.
# Submitted via: audiograbber 1.83.01
#
DISCID=9309ef0c
DTITLE=The Sevens - Valiant
DYEAR=2007
DGENRE=Celtic
TTITLE0=Anderson's/Glass of Beer/Humours of Westport
TTITLE1=Where Shall I Fly
TTITLE2=Pearl O'Shaughnessy's/Shove That Pig's Foot a Little Further into the Fire
TTITLE3=Sneaky Jigs
TTITLE4=Brothers in Arms
TTITLE5=Valley Forge
TTITLE6=Cumberland
TTITLE7=Late One Evening
TTITLE8=Boyne Water/The Battle of Waterloo
TTITLE9=Derrane's Jig Set
TTITLE10=The Cuckoo
TTITLE11=Fly Around My Pretty LIttle Miss
EXTD=
EXTT0=
EXTT1=
EXTT2=
EXTT3=
EXTT4=
EXTT5=
EXTT6=
EXTT7=
EXTT8=
EXTT9=
EXTT10=
EXTT11=
PLAYORDER=
